<?xml version="1.0" standalone="no"?>
<!DOCTYPE svg PUBLIC "-//W3C//DTD SVG 20010904//EN"
 "http://www.w3.org/TR/2001/REC-SVG-20010904/DTD/svg10.dtd">
<svg version="1.0" xmlns="http://www.w3.org/2000/svg"
 width="701.000000pt" height="701.000000pt" viewBox="0 0 701.000000 701.000000"
 preserveAspectRatio="xMidYMid meet">
<metadata>
Created by potrace 1.11, written by Peter Selinger 2001-2013
</metadata>
<g transform="translate(0.000000,701.000000) scale(0.100000,-0.100000)"
fill="#000000" stroke="none">
<path d="M3428 6965 c-2 -1 -61 -5 -133 -9 -71 -3 -141 -8 -155 -10 -14 -3
-50 -7 -81 -11 -31 -3 -67 -8 -80 -10 -13 -3 -41 -7 -64 -10 -96 -14 -361 -80
-483 -121 -296 -99 -516 -202 -757 -352 -82 -51 -303 -206 -315 -221 -3 -3
-39 -33 -80 -66 -89 -72 -327 -306 -396 -390 -27 -33 -55 -67 -63 -75 -38 -40
-190 -253 -256 -358 -199 -321 -384 -772 -438 -1072 -3 -14 -14 -72 -25 -130
-11 -58 -23 -127 -26 -155 -4 -27 -9 -66 -11 -85 -24 -181 -24 -648 0 -771 3
-13 7 -46 10 -74 3 -27 7 -60 9 -71 2 -12 7 -38 10 -58 13 -78 38 -195 63
-286 14 -52 27 -102 28 -110 10 -40 57 -177 100 -285 172 -437 428 -828 760
-1160 167 -167 230 -223 400 -351 210 -159 524 -335 776 -434 72 -29 275 -99
319 -110 19 -5 69 -18 110 -28 78 -21 259 -58 320 -67 209 -28 340 -38 515
-39 133 0 342 10 395 18 14 3 48 7 75 11 79 9 199 31 335 60 426 91 944 334
1300 609 247 192 454 395 632 622 194 248 321 461 460 769 114 252 224 657
253 931 2 21 6 53 9 69 23 141 23 556 1 735 -3 19 -7 58 -10 85 -13 105 -38
235 -71 369 -134 548 -389 1038 -758 1460 -136 155 -368 375 -470 445 -12 8
-23 18 -26 21 -3 3 -27 22 -55 41 -27 18 -55 39 -62 46 -31 28 -264 170 -385
233 -360 188 -768 317 -1148 365 -25 3 -61 8 -80 10 -68 9 -446 25 -452 20z"/>
</g>
</svg>
